<?xml version="1.0" standalone="no"?>
<!DOCTYPE svg PUBLIC "-//W3C//DTD SVG 20010904//EN"
 "http://www.w3.org/TR/2001/REC-SVG-20010904/DTD/svg10.dtd">
<svg version="1.0" xmlns="http://www.w3.org/2000/svg"
 width="3000.000000pt" height="3000.000000pt" viewBox="0 0 3000.000000 3000.000000"
 preserveAspectRatio="xMidYMid meet">

<g transform="translate(0.000000,3000.000000) scale(0.100000,-0.100000)"
fill="#d1fd00" stroke="none">
<path d="M12830 29510 c0 -3 536 -540 1190 -1195 l1190 -1190 0 -3951 0 -3950
-317 -324 c-175 -179 -472 -482 -660 -674 l-343 -350 0 -1555 0 -1556 518
-521 c284 -286 416 -417 292 -290 -124 127 -355 362 -513 521 l-287 290 0
1550 0 1550 138 140 c475 484 1058 1080 1115 1140 l67 70 0 3959 0 3958 -1195
1192 c-657 655 -1195 1189 -1195 1186z"/>
</g>
</svg>
