<?xml version="1.0" standalone="no"?>
<!DOCTYPE svg PUBLIC "-//W3C//DTD SVG 20010904//EN" "http://www.w3.org/TR/2001/REC-SVG-20010904/DTD/svg10.dtd">
<svg version="1.0" xmlns="http://www.w3.org/2000/svg"
 width="3000.000000pt" height="3000.000000pt" viewBox="0 0 3000.000000 3000.000000"
 preserveAspectRatio="xMidYMid meet">

<g transform="translate(0.000000,3000.000000) scale(0.100000,-0.100000)"
fill="#d1fd00" stroke="none">
<path d="M11120 15654 c-25 -25 -241 -239 -481 -475 l-437 -429 -1108 0 -1109
0 -135 133 -135 132 135 -137 135 -138 1110 0 1110 0 485 475 485 474 2835 1
2835 0 1020 -1017 1020 -1018 -1020 1023 -1020 1022 -2840 0 -2841 0 -44 -46z"/>
<path d="M7380 15335 c118 -118 217 -215 220 -215 3 0 -92 97 -210 215 -118
118 -217 215 -220 215 -3 0 92 -97 210 -215z"/>
<path d="M7655 15060 c10 -11 20 -20 23 -20 3 0 -3 9 -13 20 -10 11 -20 20
-23 20 -3 0 3 -9 13 -20z"/>
</g>
</svg>
