<?xml version="1.0" standalone="no"?>
<!DOCTYPE svg PUBLIC "-//W3C//DTD SVG 20010904//EN"
 "http://www.w3.org/TR/2001/REC-SVG-20010904/DTD/svg10.dtd">
<svg version="1.0" xmlns="http://www.w3.org/2000/svg"
 width="3000.000000pt" height="3000.000000pt" viewBox="0 0 3000.000000 3000.000000"
 preserveAspectRatio="xMidYMid meet" >

<g transform="translate(0.000000,3000.000000) scale(0.100000,-0.100000)"
fill="#d1fd00" stroke="none">
<path d="M15762 19026 l-2 -3519 -147 -151 c-82 -83 -254 -259 -383 -391 -361
-369 -661 -675 -936 -955 -137 -140 -293 -300 -347 -356 l-97 -100 0 -635 c0
-350 3 -1358 7 -2242 l6 -1606 174 -178 c277 -283 1045 -1053 1041 -1043 -3 8
-333 345 -900 917 l-309 312 3 1913 c2 1052 5 2060 8 2240 l5 326 124 129 c69
70 217 223 331 338 183 187 951 971 1307 1335 l133 135 -2 3280 c0 1804 -4
3390 -8 3525 -3 135 -7 -1339 -8 -3274z"/>
<path d="M15170 7746 c0 -2 8 -10 18 -17 15 -13 16 -12 3 4 -13 16 -21 21 -21
13z"/>
</g>
</svg>
